<?xml version="1.0" standalone="no"?>
<!DOCTYPE svg PUBLIC "-//W3C//DTD SVG 20010904//EN"
 "http://www.w3.org/TR/2001/REC-SVG-20010904/DTD/svg10.dtd">
<svg version="1.0" xmlns="http://www.w3.org/2000/svg"
 width="512.000000pt" height="512.000000pt" viewBox="0 0 512.000000 512.000000"
 preserveAspectRatio="xMidYMid meet">
<metadata>
Created by potrace 1.14, written by Peter Selinger 2001-2017
</metadata>
<g transform="translate(0.000000,512.000000) scale(0.100000,-0.100000)"
fill="#000000" stroke="none">
<path d="M1480 3940 c0 -13 -7 -20 -20 -20 -13 0 -20 -7 -20 -20 0 -17 -7 -20
-40 -20 -33 0 -40 -3 -40 -20 0 -13 -7 -20 -20 -20 -13 0 -20 -7 -20 -20 0
-13 -7 -20 -20 -20 -13 0 -20 -7 -20 -20 0 -13 7 -20 20 -20 13 0 20 -7 20
-20 0 -13 -7 -20 -20 -20 -13 0 -20 -7 -20 -20 0 -13 7 -20 20 -20 18 0 20 -7
20 -80 l0 -80 40 0 40 0 0 -40 0 -40 60 0 60 0 0 -60 0 -60 -120 0 c-113 0
-120 -1 -120 -20 0 -17 -7 -20 -40 -20 -33 0 -40 -3 -40 -20 0 -17 -7 -20 -40
-20 -33 0 -40 -3 -40 -20 0 -13 7 -20 20 -20 13 0 20 -7 20 -20 0 -13 -7 -20
-20 -20 -13 0 -20 -7 -20 -20 0 -13 7 -20 20 -20 19 0 20 -7 20 -100 0 -93 -1
-100 -20 -100 -13 0 -20 -7 -20 -20 0 -13 -7 -20 -20 -20 -18 0 -20 -7 -20
-60 0 -53 -2 -60 -20 -60 -19 0 -20 -7 -20 -100 0 -93 -1 -100 -20 -100 -17 0
-20 -7 -20 -40 0 -33 -3 -40 -20 -40 -17 0 -20 -7 -20 -40 0 -33 -3 -40 -20
-40 -17 0 -20 -7 -20 -40 l0 -40 -40 0 -40 0 0 -40 0 -40 -40 0 -40 0 0 -140
c0 -133 -1 -140 -20 -140 -13 0 -20 -7 -20 -20 0 -13 -7 -20 -20 -20 -13 0
-20 -7 -20 -20 0 -19 -7 -20 -100 -20 -93 0 -100 1 -100 20 0 13 -7 20 -20 20
-17 0 -20 7 -20 40 0 33 -3 40 -20 40 -13 0 -20 7 -20 20 0 13 -7 20 -20 20
-13 0 -20 7 -20 20 0 17 -7 20 -40 20 l-40 0 0 40 0 40 -80 0 -80 0 0 60 0 60
-60 0 -60 0 0 -500 0 -500 1900 0 1900 0 0 -80 0 -80 -140 0 -140 0 0 -40 c0
-33 3 -40 20 -40 13 0 20 -7 20 -20 0 -13 -7 -20 -20 -20 -13 0 -20 -7 -20
-20 0 -19 -7 -20 -240 -20 -233 0 -240 -1 -240 -20 0 -18 -7 -20 -80 -20 -73
0 -80 2 -80 20 0 19 -7 20 -100 20 -93 0 -100 -1 -100 -20 0 -19 -7 -20 -100
-20 -93 0 -100 1 -100 20 0 17 -7 20 -40 20 l-40 0 0 60 0 60 -40 0 c-33 0
-40 3 -40 20 0 18 -7 20 -60 20 l-60 0 0 -80 0 -80 40 0 c33 0 40 -3 40 -20 0
-18 -7 -20 -80 -20 -73 0 -80 2 -80 20 0 13 -7 20 -20 20 -13 0 -20 -7 -20
-20 0 -18 -7 -20 -80 -20 l-80 0 0 40 0 40 -40 0 c-33 0 -40 3 -40 20 0 18 -7
20 -60 20 l-60 0 0 -60 0 -60 -100 0 c-93 0 -100 1 -100 20 0 13 -7 20 -20 20
-13 0 -20 -7 -20 -20 0 -20 -7 -20 -740 -20 l-740 0 0 -460 0 -460 2560 0
2560 0 0 560 0 560 -320 0 c-313 0 -320 0 -320 20 0 13 -7 20 -20 20 -13 0
-20 7 -20 20 0 13 7 20 20 20 13 0 20 7 20 20 0 13 7 20 20 20 13 0 20 7 20
20 0 19 7 20 240 20 233 0 240 -1 240 -20 0 -13 7 -20 20 -20 13 0 20 7 20 20
0 17 7 20 40 20 l40 0 0 560 c0 553 0 560 -20 560 -13 0 -20 7 -20 20 0 13 -7
20 -20 20 -13 0 -20 -7 -20 -20 0 -13 -7 -20 -20 -20 -17 0 -20 -7 -20 -40 l0
-40 -40 0 -40 0 0 -40 c0 -33 -3 -40 -20 -40 -13 0 -20 -7 -20 -20 0 -17 -7
-20 -40 -20 l-40 0 0 -100 c0 -93 -1 -100 -20 -100 -13 0 -20 -7 -20 -20 0
-18 -7 -20 -80 -20 l-80 0 0 -40 c0 -33 -3 -40 -20 -40 -18 0 -20 7 -20 80 0
73 -2 80 -20 80 -19 0 -20 7 -20 120 l0 120 -80 0 c-73 0 -80 2 -80 20 0 18
-7 20 -60 20 -53 0 -60 2 -60 20 0 13 -7 20 -20 20 -13 0 -20 7 -20 20 0 13
-7 20 -20 20 -13 0 -20 -7 -20 -20 0 -13 -7 -20 -20 -20 -17 0 -20 7 -20 40
l0 40 -40 0 -40 0 0 40 c0 33 -3 40 -20 40 -17 0 -20 7 -20 40 l0 40 -40 0
-40 0 0 40 c0 33 -3 40 -20 40 -19 0 -20 7 -20 120 l0 120 80 0 80 0 0 100 c0
93 -1 100 -20 100 -13 0 -20 7 -20 20 0 13 -7 20 -20 20 -13 0 -20 7 -20 20 0
17 -7 20 -40 20 l-40 0 0 40 0 40 -60 0 c-53 0 -60 -2 -60 -20 0 -13 -7 -20
-20 -20 -13 0 -20 -7 -20 -20 0 -13 -7 -20 -20 -20 -17 0 -20 -7 -20 -40 l0
-40 -60 0 c-53 0 -60 -2 -60 -20 0 -13 7 -20 20 -20 13 0 20 -7 20 -20 0 -13
-7 -20 -20 -20 -17 0 -20 -7 -20 -40 0 -33 3 -40 20 -40 13 0 20 -7 20 -20 0
-13 7 -20 20 -20 13 0 20 -7 20 -20 0 -18 7 -20 60 -20 l60 0 0 -60 c0 -53 -2
-60 -20 -60 -13 0 -20 7 -20 20 0 18 -7 20 -60 20 -53 0 -60 2 -60 20 0 13 -7
20 -20 20 -13 0 -20 7 -20 20 0 13 -7 20 -20 20 -13 0 -20 7 -20 20 0 17 -7
20 -40 20 -33 0 -40 3 -40 20 0 18 -7 20 -60 20 -53 0 -60 -2 -60 -20 0 -17
-7 -20 -40 -20 l-40 0 0 80 c0 73 2 80 20 80 17 0 20 -7 20 -40 l0 -40 60 0
c53 0 60 2 60 20 0 17 -7 20 -40 20 -33 0 -40 3 -40 20 0 13 7 20 20 20 13 0
20 7 20 20 0 17 7 20 40 20 l40 0 0 80 c0 73 2 80 20 80 13 0 20 -7 20 -20 0
-13 7 -20 20 -20 17 0 20 7 20 40 0 33 -3 40 -20 40 -18 0 -20 7 -20 60 l0 60
-40 0 c-33 0 -40 3 -40 20 0 13 -7 20 -20 20 -13 0 -20 7 -20 20 0 13 -7 20
-20 20 -13 0 -20 7 -20 20 0 19 -7 20 -120 20 -113 0 -120 -1 -120 -20 0 -17
-7 -20 -40 -20 -33 0 -40 -3 -40 -20 0 -13 7 -20 20 -20 17 0 20 -7 20 -40 l0
-40 -80 0 c-73 0 -80 2 -80 20 0 13 -7 20 -20 20 -13 0 -20 7 -20 20 0 18 -7
20 -60 20 -53 0 -60 -2 -60 -20 0 -13 -7 -20 -20 -20 -13 0 -20 7 -20 20 0 13
-7 20 -20 20 -13 0 -20 7 -20 20 0 13 -7 20 -20 20 -13 0 -20 7 -20 20 0 19
-7 20 -120 20 -113 0 -120 -1 -120 -20 0 -18 -7 -20 -80 -20 -73 0 -80 -2 -80
-20 0 -17 -7 -20 -40 -20 -33 0 -40 3 -40 20 0 17 -7 20 -40 20 l-40 0 0 40
c0 33 -3 40 -20 40 -13 0 -20 7 -20 20 0 13 7 20 20 20 13 0 20 7 20 20 0 19
-7 20 -100 20 -93 0 -100 1 -100 20 0 13 -7 20 -20 20 -13 0 -20 7 -20 20 0
13 7 20 20 20 13 0 20 7 20 20 0 13 -7 20 -20 20 -13 0 -20 7 -20 20 0 18 -7
20 -60 20 l-60 0 0 40 0 40 -80 0 c-73 0 -80 2 -80 20 0 13 -7 20 -20 20 -13
0 -20 -7 -20 -20z m1320 -520 c0 -13 -7 -20 -20 -20 -13 0 -20 7 -20 20 0 13
7 20 20 20 13 0 20 -7 20 -20z m-1120 -40 c0 -13 -7 -20 -20 -20 -13 0 -20 7
-20 20 0 13 7 20 20 20 13 0 20 -7 20 -20z m1200 -40 c0 -13 -7 -20 -20 -20
-13 0 -20 7 -20 20 0 13 7 20 20 20 13 0 20 -7 20 -20z m-1600 -240 c0 -13 -7
-20 -20 -20 -13 0 -20 7 -20 20 0 13 7 20 20 20 13 0 20 -7 20 -20z m1720 -80
c0 -13 -7 -20 -20 -20 -13 0 -20 7 -20 20 0 13 7 20 20 20 13 0 20 -7 20 -20z
m440 -120 c0 -17 -7 -20 -40 -20 -33 0 -40 3 -40 20 0 17 7 20 40 20 33 0 40
-3 40 -20z m-120 -40 c0 -13 -7 -20 -20 -20 -13 0 -20 7 -20 20 0 13 7 20 20
20 13 0 20 -7 20 -20z m80 -80 c0 -13 7 -20 20 -20 13 0 20 -7 20 -20 0 -13
-7 -20 -20 -20 -13 0 -20 7 -20 20 0 17 -7 20 -40 20 -33 0 -40 3 -40 20 0 17
7 20 40 20 33 0 40 -3 40 -20z m-2080 -40 c0 -13 -7 -20 -20 -20 -13 0 -20 7
-20 20 0 13 7 20 20 20 13 0 20 -7 20 -20z m1840 0 c0 -13 -7 -20 -20 -20 -13
0 -20 7 -20 20 0 13 7 20 20 20 13 0 20 -7 20 -20z m560 -40 c0 -13 -7 -20
-20 -20 -13 0 -20 -7 -20 -20 0 -17 -7 -20 -40 -20 -33 0 -40 3 -40 20 0 17 7
20 40 20 33 0 40 3 40 20 0 13 7 20 20 20 13 0 20 -7 20 -20z m-200 -40 c0
-13 -7 -20 -20 -20 -13 0 -20 7 -20 20 0 13 7 20 20 20 13 0 20 -7 20 -20z
m-1600 -40 c0 -13 -7 -20 -20 -20 -13 0 -20 7 -20 20 0 13 7 20 20 20 13 0 20
-7 20 -20z m-520 -40 c0 -13 -7 -20 -20 -20 -13 0 -20 7 -20 20 0 13 7 20 20
20 13 0 20 -7 20 -20z m2080 -40 c0 -13 -7 -20 -20 -20 -13 0 -20 7 -20 20 0
13 7 20 20 20 13 0 20 -7 20 -20z m320 0 c0 -13 -7 -20 -20 -20 -13 0 -20 7
-20 20 0 13 7 20 20 20 13 0 20 -7 20 -20z m-2640 -80 c0 -13 7 -20 20 -20 13
0 20 -7 20 -20 0 -17 -7 -20 -40 -20 l-40 0 0 40 c0 33 3 40 20 40 13 0 20 -7
20 -20z m2120 -40 c0 -13 7 -20 20 -20 18 0 20 -7 20 -60 0 -53 2 -60 20 -60
19 0 20 -7 20 -100 l0 -100 60 0 c53 0 60 -2 60 -20 0 -18 -7 -20 -80 -20
l-80 0 0 -40 c0 -33 -3 -40 -20 -40 -19 0 -20 7 -20 220 0 213 -1 220 -20 220
-13 0 -20 7 -20 20 0 13 7 20 20 20 13 0 20 -7 20 -20z m240 -80 c0 -13 -7
-20 -20 -20 -13 0 -20 7 -20 20 0 13 7 20 20 20 13 0 20 -7 20 -20z m-1640
-120 c0 -13 -7 -20 -20 -20 -13 0 -20 7 -20 20 0 13 7 20 20 20 13 0 20 -7 20
-20z m2600 -120 c0 -13 -7 -20 -20 -20 -13 0 -20 7 -20 20 0 13 7 20 20 20 13
0 20 -7 20 -20z m-2560 -200 c0 -13 -7 -20 -20 -20 -13 0 -20 7 -20 20 0 13 7
20 20 20 13 0 20 -7 20 -20z m-1160 -80 c0 -13 -7 -20 -20 -20 -13 0 -20 7
-20 20 0 13 7 20 20 20 13 0 20 -7 20 -20z m2160 -200 c0 -13 -7 -20 -20 -20
-13 0 -20 7 -20 20 0 13 7 20 20 20 13 0 20 -7 20 -20z m-2240 -80 c0 -17 -7
-20 -40 -20 -33 0 -40 3 -40 20 0 17 7 20 40 20 33 0 40 -3 40 -20z m160 -120
c0 -17 -7 -20 -40 -20 -33 0 -40 3 -40 20 0 17 7 20 40 20 33 0 40 -3 40 -20z
m720 0 c0 -13 -7 -20 -20 -20 -13 0 -20 7 -20 20 0 13 7 20 20 20 13 0 20 -7
20 -20z m280 0 c0 -13 -7 -20 -20 -20 -13 0 -20 7 -20 20 0 13 7 20 20 20 13
0 20 -7 20 -20z m2320 -220 c0 -73 -2 -80 -20 -80 -18 0 -20 7 -20 80 0 73 2
80 20 80 18 0 20 -7 20 -80z m200 20 l0 -60 40 0 40 0 0 -80 0 -80 -60 0 -60
0 0 140 c0 133 1 140 20 140 18 0 20 -7 20 -60z m80 0 c0 -13 -7 -20 -20 -20
-13 0 -20 7 -20 20 0 13 7 20 20 20 13 0 20 -7 20 -20z"/>
<path d="M4920 2380 c0 -13 7 -20 20 -20 13 0 20 7 20 20 0 13 -7 20 -20 20
-13 0 -20 -7 -20 -20z"/>
</g>
</svg>
